<svg xmlns="http://www.w3.org/2000/svg" width="500" height="500" xml:space="preserve">
  <desc>
    Created with Fabric.js 3.6.3
  </desc>
  <path d="M242.5 238q0-.3.5-.3l.7.1q.3.1.3.4-1.2 8.2-1.2 17.2 0 1-.4 1.5-.5.5-1.6.5h-54.6q-.3 0-.3-.8t.3-.8q5 0 7.2-.7 2.3-.6 3.1-2.5.9-1.9.9-5.8v-60.3q0-4-.9-5.7-.8-1.9-3-2.6-2.4-.7-7.3-.7-.3 0-.3-.8t.3-.8h52.4q1.1 0 1.1 1.2l.3 16q0 .4-.7.5-.6 0-.7-.3-.4-7-4.2-10.8-3.8-3.8-10-3.8h-8q-4.6 0-6.7.7-2.1.7-3 2.5-.8 1.7-.8 5.2v26.5h15.8q6.3 0 9-2.1 2.6-2 2.6-7 0-.3.8-.3t.8.3l-.1 10.5.1 5.8.1 6.2q0 .3-.7.3-.8 0-.8-.3 0-5.7-2.8-8.2-2.8-2.5-9.3-2.5h-15.5v30q0 3.6.7 5.3.8 1.7 3 2.4 2 .6 6.4.6h10.4q6.3 0 10.5-4.4 4.1-4.4 5.6-12.3Zm32.1-51.4v59.7q0 3.8.8 5.5.8 1.6 2.9 2.2 2 .6 6.7.6h14.2q7.5 0 11.9-4.5 4.4-4.6 5.9-12.7 0-.4.7-.3.7 0 .7.5-1.2 10.8-1.2 17.8 0 1-.4 1.5t-1.5.5H255q-.3 0-.3-.8t.3-.8q5 0 7.2-.7 2.3-.6 3-2.5.9-1.9.9-5.8v-60.3q0-4-.8-5.7-.8-1.9-3-2.6-2.4-.7-7.3-.7-.3 0-.3-.8t.3-.8l6.4.2 8.8.2 9.1-.2 6.3-.2q.4 0 .4.8t-.4.8q-4.8 0-7 .7-2.4.7-3.2 2.6-.9 2-.9 5.8Z" fill="#fff"/>
  <path d="m96.6 298.3 1 5h2.7l-4.7-24.5h-4L87 303.3h2.6l1-5Zm-3.1-16.5 2.7 14.2h-5.4Zm34.2 7.8v-8.3h7.3v-2.5h-10v24.5h10v-2.5h-7.3V292h6v-2.5Zm37.5-11.1c-3.6 0-5.4 2.4-5.4 6.1 0 7 8.2 7.5 8.2 13 0 2.1-1 3.4-2.9 3.4-2 0-2.8-1.3-2.8-3.5V296h-2.6v1.4c0 3.7 1.8 6.1 5.5 6.1 3.8 0 5.5-2.4 5.5-6.1 0-6.9-8.2-7.4-8.2-13 0-2 .9-3.4 2.8-3.4 2 0 2.8 1.3 2.8 3.5v.8h2.6v-.7c0-3.7-1.7-6-5.5-6Zm36.7 24.8v-22h4.5v-2.5h-11.7v2.5h4.5v22Zm37.6-11.1v11h2.8v-24.4h-2.8v11h-6v-11h-2.7v24.5h2.7v-11Zm30.8-2.6v-8.3h7.4v-2.5h-10v24.5h10v-2.5h-7.4V292h6v-2.5Zm38.7 13.7v-22h4.5v-2.5h-11.7v2.5h4.5v22Zm28.9-24.5v24.5h2.7v-24.5Zm33.4-.3c-3.8 0-5.5 2.5-5.5 6.2v12.7c0 3.7 1.7 6.1 5.5 6.1 3.7 0 5.5-2.4 5.5-6.1v-3h-2.6v3.1c0 2.2-.9 3.5-2.9 3.5s-2.8-1.3-2.8-3.5v-13c0-2.2.9-3.5 2.8-3.5 2 0 2.9 1.3 2.9 3.5v2.4h2.6v-2.2c0-3.7-1.8-6.2-5.5-6.2Zm35.7 0c-3.7 0-5.5 2.4-5.5 6.1 0 7 8.2 7.5 8.2 13 0 2.1-.9 3.4-2.9 3.4s-2.8-1.3-2.8-3.5V296h-2.6v1.4c0 3.7 1.8 6.1 5.5 6.1 3.8 0 5.5-2.4 5.5-6.1 0-6.9-8.2-7.4-8.2-13 0-2 .9-3.4 2.8-3.4 2 0 2.8 1.3 2.8 3.5v.8h2.6v-.7c0-3.7-1.7-6-5.4-6Z"/>
  <g transform="matrix(3.60205 0 0 .5 249.8 323)">
    <linearGradient id="SVGID_14474" gradientUnits="userSpaceOnUse" gradientTransform="translate(-50)" x1="0" y1="0" x2="100" y2="0">
      <stop offset="0%" style="stop-color:#8f5e25;stop-opacity:1"/>
      <stop offset="50%" style="stop-color:#fbf4a1;stop-opacity:1"/>
      <stop offset="100%" style="stop-color:#8f5e25;stop-opacity:1"/>
    </linearGradient>
    <linearGradient id="SVGID_14475" gradientUnits="userSpaceOnUse" gradientTransform="translate(-50)" x1="0" y1="0" x2="100" y2="0">
      <stop offset="0%" style="stop-color:#8f5e25;stop-opacity:1"/>
      <stop offset="50%" style="stop-color:#fbf4a1;stop-opacity:1"/>
      <stop offset="100%" style="stop-color:#8f5e25;stop-opacity:1"/>
    </linearGradient>
    <path style="stroke:url(#SVGID_14475);stroke-width:10;stroke-linecap:butt;stroke-dashoffset:0;stroke-linejoin:miter;stroke-miterlimit:4;fill:url(#SVGID_14474);fill-rule:nonzero;opacity:1" d="M-50 0H50"/>
  </g>
  <path d="M84.6 339.4v17.5h2v-7h1.7c2.7 0 4-1.4 4-4.1v-2.1c0-2.7-1.1-4.3-3.9-4.3Zm2 8.8v-7h1.8c1.4 0 2 .8 2 2.4v2.3c0 1.7-.7 2.3-2.2 2.3Zm9-8.8v17.5h2v-7.5h1.3c1.7 0 2.6.6 2.6 2.6v2.8c0 1.1.1 1.6.3 2h2a4 4 0 0 1-.4-2V352c0-2-.6-3.2-2.2-3.7 1.5-.5 2.2-1.7 2.2-3.6v-1.4c0-2.6-1.1-4-3.9-4Zm2 8.2v-6.4h1.9c1.4 0 2 .8 2 2.4v1.6c0 2-1 2.4-2.5 2.4Zm9.6-8.2v17.5h2v-17.5Zm5.1 0 3.3 17.5h2.9l3.3-17.5H120l-2.8 15.2-2.9-15.2Zm18.5 14 .6 3.5h2l-3.4-17.5h-2.8l-3.4 17.5h1.9l.6-3.5Zm-2.3-11.8 2 10h-4Zm12.6 15.3v-15.7h3.2v-1.8H136v1.8h3.3v15.7Zm6.3-17.5v17.5h2v-7h1.7c2.7 0 4-1.4 4-4.1v-2.1c0-2.7-1.2-4.3-3.9-4.3Zm2 8.8v-7h1.8c1.4 0 2 .8 2 2.4v2.3c0 1.7-.7 2.3-2.1 2.3Zm9-8.8v17.5h2v-7.5h1.3c1.7 0 2.6.6 2.6 2.6v2.8c0 1.1.1 1.6.3 2h2c-.3-.5-.3-1.2-.3-2V352c0-2-.7-3.2-2.3-3.7 1.6-.5 2.2-1.7 2.2-3.6v-1.4c0-2.6-1.1-4-3.9-4Zm2 8.2v-6.4h1.9c1.4 0 2 .8 2 2.4v1.6c0 2-1 2.4-2.5 2.4Zm16 5.8.7 3.5h1.9l-3.3-17.5h-2.9l-3.3 17.5h1.8l.6-3.5Zm-2.3-11.8 2 10h-3.9Zm15.4 15.3h2l-3.5-9 3.3-8.5h-1.8l-2.8 7-2.6-7h-2l3.2 8.5-3.5 9h1.8l3-7.6Zm5.3-17.5v17.5h2v-17.5Zm9.3-.2c-2.6 0-3.8 1.7-3.8 4.4 0 5 5.8 5.3 5.8 9.2 0 1.6-.7 2.5-2 2.5-1.4 0-2.1-1-2.1-2.5v-1.1h-1.8v1c0 2.6 1.2 4.4 3.9 4.4s4-1.8 4-4.4c0-5-6-5.3-6-9.2 0-1.6.7-2.5 2-2.5 1.5 0 2 1 2 2.5v.6h2v-.5c0-2.7-1.3-4.4-4-4.4Zm14.9 8.3v-6.3h5v-1.8h-7v17.5h2v-7.6h4v-1.8Zm9.7-11.4v2.3h1.7V336Zm3.1 0v2.3h1.7V336Zm3.2 3.3h-1.8v13.4c0 1.5-.7 2.5-2 2.5-1.5 0-2.1-1-2.1-2.5v-13.4h-2v13.3c0 2.6 1.3 4.4 4 4.4s3.9-1.8 3.9-4.4Zm3.6 0v17.5h2v-7.5h1.3c1.7 0 2.6.6 2.6 2.6v2.8c0 1.1 0 1.6.3 2h2c-.4-.5-.4-1.2-.4-2V352c0-2-.6-3.2-2.2-3.7 1.5-.5 2.2-1.7 2.2-3.6v-1.4c0-2.6-1.2-4-3.9-4Zm2 8.2v-6.4h1.8c1.5 0 2 .8 2 2.4v1.6c0 2-.8 2.4-2.4 2.4Zm17-11.4v2.3h1.7v-2.3Zm3 0v2.3h1.8v-2.3Zm1.5 17.2.7 3.5h2l-3.4-17.5h-2.8l-3.4 17.5h1.8l.7-3.5Zm-2.2-11.8 2 10h-4Zm11.7-2.4c-2.6 0-3.8 1.7-3.8 4.4 0 5 5.8 5.3 5.8 9.2 0 1.6-.6 2.5-2 2.5s-2-1-2-2.5v-1.1h-1.9v1c0 2.6 1.3 4.4 4 4.4 2.6 0 3.9-1.8 3.9-4.4 0-5-5.9-5.3-5.9-9.2 0-1.6.6-2.5 2-2.5s2 1 2 2.5v.6h1.9v-.5c0-2.7-1.3-4.4-4-4.4Zm11.9 17.7v-15.7h3.2v-1.8h-8.4v1.8h3.2v15.7ZM296 349v7.9h2v-17.5h-2v7.9h-4.3v-8h-2V357h2v-8Zm7.6-1.9v-6h5.3v-1.7h-7.3v17.5h7.3V355h-5.3v-6h4.3v-2Zm13.3 9.8v-15.7h3.2v-1.8h-8.4v1.8h3.2v15.7Zm6.2-17.5v17.5h2v-17.5Zm9.3-.2c-2.6 0-3.8 1.7-3.8 4.4 0 5 5.8 5.3 5.8 9.2 0 1.6-.6 2.5-2 2.5s-2-1-2-2.5v-1.1h-1.9v1c0 2.6 1.3 4.4 4 4.4 2.6 0 3.9-1.8 3.9-4.4 0-5-5.9-5.3-5.9-9.2 0-1.6.6-2.5 2-2.5s2 1 2 2.5v.6h1.9v-.5c0-2.7-1.3-4.4-4-4.4Zm11.2 0c-2.7 0-4 1.8-4 4.4v9c0 2.7 1.3 4.5 4 4.5 2.6 0 3.9-1.8 3.9-4.4v-2.2h-1.9v2.3c0 1.5-.6 2.5-2 2.5s-2-1-2-2.5v-9.3c0-1.6.6-2.5 2-2.5s2 1 2 2.5v1.7h1.9v-1.6c0-2.6-1.3-4.4-4-4.4Zm13.6 9.8v7.9h2v-17.5h-2v7.9H353v-8h-2V357h2v-8Zm7.6-1.9v-6h5.3v-1.7h-7.2v17.5h7.2V355h-5.3v-6h4.3v-2Zm16.2-7.7h-2v13.3c0 2.6 1.3 4.4 4 4.4s3.9-1.8 3.9-4.4v-13.3h-1.8v13.4c0 1.5-.7 2.5-2 2.5-1.5 0-2.1-1-2.1-2.5Zm11.3 3.3 4.4 14.2h2v-17.5H397V352l-4-12.6h-2.5v17.5h1.8Zm10.1-3.3v17.5h4.2c2.7 0 4-1.7 4-4.3v-8.9c0-2.7-1.3-4.3-4-4.3Zm2 15.7v-14h2.1c1.4 0 2.1 1 2.1 2.5v9c0 1.6-.7 2.5-2 2.5Zm-255.8 9.7v17.5h2v-7.5h1.3c1.7 0 2.6.7 2.6 2.6v2.8c0 1.2 0 1.6.3 2.1h2c-.3-.6-.4-1.3-.4-2v-2.8c0-1.9-.6-3.2-2.2-3.7 1.5-.4 2.2-1.6 2.2-3.6v-1.4c0-2.6-1.1-4-3.9-4Zm2 8.3v-6.5h1.9c1.4 0 2 .8 2 2.4v1.7c0 1.9-1 2.4-2.5 2.4Zm11.5-.5v-6h5.3v-1.8h-7.2v17.5h7.2v-1.8H162v-6.2h4.3v-1.7Zm12.5-8c-2.6 0-3.9 1.8-3.9 4.4v9c0 2.7 1.3 4.5 4 4.5 2.6 0 3.9-1.8 3.9-4.4v-5.2h-3.7v1.8h1.8v3.5c0 1.6-.6 2.5-2 2.5s-2-1-2-2.5v-9.3c0-1.5.6-2.5 2-2.5s2 1 2 2.5v1.6h1.9V369c0-2.6-1.3-4.4-4-4.4Zm9.4 8v-6h5.3v-1.8h-7.2v17.5h7.2v-1.8h-5.2v-6.2h4.3v-1.7Zm10.6-4.4 4.4 14.1h2v-17.5h-1.7v12.7l-4-12.7h-2.5v17.5h1.8Zm12.1 4.4v-6h5.3v-1.8h-7.2v17.5h7.2v-1.8h-5.3v-6.2h4.3v-1.7Zm8.8-7.8v17.5h2v-7.5h1.3c1.6 0 2.5.7 2.5 2.6v2.8c0 1.2.1 1.6.4 2.1h2c-.4-.6-.4-1.3-.4-2v-2.8c0-1.9-.6-3.2-2.2-3.7 1.5-.4 2.2-1.6 2.2-3.6v-1.4c0-2.6-1.2-4-4-4Zm2 8.3v-6.5h1.8c1.5 0 2 .8 2 2.4v1.7c0 1.9-.9 2.4-2.4 2.4Zm15.9 5.7.7 3.5h2l-3.4-17.5h-2.8l-3.4 17.5h1.8l.7-3.5Zm-2.2-11.8 2 10.1h-4Zm12.6 15.3v-15.7h3.2v-1.8h-8.4v1.8h3.2v15.7Zm6.2-17.5v17.5h2v-17.5Zm5.2 0 3.3 17.5h2.9l3.2-17.5h-1.8L260 380l-2.8-15.2Zm14.6 7.8v-6h5.2v-1.8h-7.2v17.5h7.2v-1.8h-5.2v-6.2h4.3v-1.7Zm23.5-4.4v14.1h1.9v-17.5h-2.7l-2.8 14-2.9-14h-2.7v17.5h1.7v-14l2.9 14h1.9Zm7.5 4.4v-6h5.3v-1.8h-7.2v17.5h7.2v-1.8h-5.3v-6.2h4.3v-1.7Zm8.8-7.8v17.5h4c2.8 0 4-1.6 4-4.3v-8.8c0-2.7-1.2-4.4-4-4.4Zm2 15.7v-14h2c1.5 0 2.1 1 2.1 2.6v9c0 1.6-.6 2.4-2 2.4Zm9.6-15.7v17.5h2v-17.5Zm13.3 15.7h-6l6-14v-1.7h-7.7v1.8h5.8l-6 14v1.7h8Zm3.5-15.7v17.5h2v-17.5Zm7.4 3.4 4.5 14.1h2v-17.5h-1.7v12.7l-4-12.7h-2.6v17.5h1.8Z"/>
</svg>